[2026-06-21T08:29:43.082Z] queued provider=seedance agent=codex duration=5s source=source_1782030539880_9gpql6 frame=frames_1782030546570_4g691p slot=0:00–0:05
[2026-06-21T08:45:51.011Z] /complete received clip=2523174B; merging replace=[0.000, 5.000]
[2026-06-21T08:45:51.023Z] probe-source-before-merge START: ffprobe -v error -show_entries stream=codec_type,width,height,r_frame_rate:format=duration -of json /Users/edrlu/Documents/Cerebra/regen/sources/source_1782030539880_9gpql6/source.mp4
[2026-06-21T08:45:51.065Z] probe-generated-clip START: ffprobe -v error -show_entries stream=codec_type,width,height,r_frame_rate:format=duration -of json /Users/edrlu/Documents/Cerebra/regen/job_1782030583020_o0j6x3/clip.mp4
[2026-06-21T08:45:51.065Z] probe-source-before-merge OK in 0.04s
[2026-06-21T08:45:51.085Z] probe-generated-clip OK in 0.02s
[2026-06-21T08:45:51.085Z] merge plan: source=1920x1080 fps=24000/1001 duration=30.093s audio=true; clip=1280x720 duration=5.042s audio=false; replace=[0.000, 5.000], segments=2
[2026-06-21T08:45:51.087Z] merge-ffmpeg START: ffmpeg -y -i /Users/edrlu/Documents/Cerebra/regen/sources/source_1782030539880_9gpql6/source.mp4 -i /Users/edrlu/Documents/Cerebra/regen/job_1782030583020_o0j6x3/clip.mp4 -filter_complex [1:v]scale=1920:1080:force_original_aspect_ratio=decrease,pad=1920:1080:(ow-iw)/2:(oh-ih)/2,setsar=1,fps=24000/1001,format=yuv420p,setpts=PTS-STARTPTS[v1];anullsrc=channel_layout=stereo:sample_rate=44100,atrim=duration=5.042,asetpts=PTS-STARTPTS[a1];[0:v]trim=start=5.000,setpts=PTS-STARTPTS[v2];[0:a]atrim=start=5.000,asetpts=PTS-STARTPTS[a2];[v1][a1][v2][a2]concat=n=2:v=1:a=1[vout][aout] -map [vout] -map [aout] -c:v libx264 -pix_fmt yuv420p -preset veryfast -crf 20 -c:a aac -movflags +faststart /Users/edrlu/Documents/Cerebra/regen/job_1782030583020_o0j6x3/final.mp4
[2026-06-21T08:45:53.470Z] merge-ffmpeg OK in 2.38s
stderr:
s: isomiso2avc1mp41
  Duration: 00:00:05.04, start: 0.000000, bitrate: 4003 kb/s
  Stream #1:0[0x1](und): Video: h264 (High) (avc1 / 0x31637661), yuv420p(progressive), 1280x720, 4000 kb/s, 24 fps, 24 tbr, 12288 tbn (default)
    Metadata:
      handler_name    : VideoHandler
Stream mapping:
  Stream #0:0 (libdav1d) -> trim:default
  Stream #0:1 (aac) -> atrim:default
  Stream #1:0 (h264) -> scale:default
  concat -> Stream #0:0 (libx264)
  concat -> Stream #0:1 (aac)
Press [q] to stop, [?] for help
[libx264 @ 0x86ac51880] using SAR=1/1
[libx264 @ 0x86ac51880] using cpu capabilities: ARMv8 NEON DotProd I8MM
[libx264 @ 0x86ac51880] profile High, level 4.0, 4:2:0, 8-bit
[libx264 @ 0x86ac51880] 264 - core 165 r3222 b35605a - H.264/MPEG-4 AVC codec - Copyleft 2003-2025 - http://www.videolan.org/x264.html - options: cabac=1 ref=1 deblock=1:0:0 analyse=0x3:0x113 me=hex subme=2 psy=1 psy_rd=1.00:0.00 mixed_ref=0 me_range=16 chroma_me=1 trellis=0 8x8dct=1 cqm=0 deadzone=21,11 fast_pskip=1 chroma_qp_offset=0 threads=15 lookahead_threads=5 sliced_threads=0 nr=0 decimate=1 interlaced=0 bluray_compat=0 constrained_intra=0 bframes=3 b_pyramid=2 b_adapt=1 b_bias=0 direct=1 weightb=1 open_gop=0 weightp=1 keyint=250 keyint_min=23 scenecut=40 intra_refresh=0 rc_lookahead=10 rc=crf mbtree=1 crf=20.0 qcomp=0.60 qpmin=0 qpmax=69 qpstep=4 ip_ratio=1.40 aq=1:1.00
Output #0, mp4, to '/Users/edrlu/Documents/Cerebra/regen/job_1782030583020_o0j6x3/final.mp4':
  Metadata:
    major_brand     : isom
    minor_version   : 512
    compatible_brands: isomav01iso2mp41
    encoder         : Lavf62.12.100
  Stream #0:0: Video: h264 (avc1 / 0x31637661), yuv420p(tv, bt709/unknown/unknown, progressive), 1920x1080 [SAR 1:1 DAR 16:9], q=2-31, 23.98 fps, 24k tbn
    Metadata:
      encoder         : Lavc62.28.100 libx264
    Side data:
      CPB properties: bitrate max/min/avg: 0/0/0 buffer size: 0 vbv_delay: N/A
  Stream #0:1: Audio: aac (LC) (mp4a / 0x6134706D), 44100 Hz, stereo, fltp, 128 kb/s
    Metadata:
      encoder         : Lavc62.28.100 aac
frame=   99 fps=0.0 q=25.0 size=    1536KiB time=00:00:04.04 bitrate=3110.3kbits/s speed=8.01x elapsed=0:00:00.50    frame=  280 fps=277 q=25.0 size=    3584KiB time=00:00:11.59 bitrate=2532.2kbits/s speed=11.5x elapsed=0:00:01.01    frame=  480 fps=317 q=25.0 size=    5888KiB time=00:00:19.93 bitrate=2419.4kbits/s speed=13.2x elapsed=0:00:01.51    frame=  621 fps=308 q=25.0 size=    8448KiB time=00:00:25.81 bitrate=2680.6kbits/s speed=12.8x elapsed=0:00:02.01    [mp4 @ 0x86ac1f200] Starting second pass: moving the moov atom to the beginning of the file
[out#0/mp4 @ 0x86ac18780] video:10252KiB audio:406KiB subtitle:0KiB other streams:0KiB global headers:0KiB muxing overhead: 0.223210%
frame=  721 fps=307 q=-1.0 Lsize=   10681KiB time=00:00:29.98 bitrate=2917.9kbits/s speed=12.8x elapsed=0:00:02.34    
[libx264 @ 0x86ac51880] frame I:16    Avg QP: 9.28  size: 84821
[libx264 @ 0x86ac51880] frame P:214   Avg QP:16.19  size: 27897
[libx264 @ 0x86ac51880] frame B:491   Avg QP:19.21  size:  6457
[libx264 @ 0x86ac51880] consecutive B-frames:  5.4%  8.9%  7.5% 78.2%
[libx264 @ 0x86ac51880] mb I  I16..4: 62.9% 16.6% 20.5%
[libx264 @ 0x86ac51880] mb P  I16..4: 11.4%  8.4%  1.8%  P16..4: 15.2%  8.2%  4.2%  0.0%  0.0%    skip:50.9%
[libx264 @ 0x86ac51880] mb B  I16..4:  1.0%  1.0%  0.1%  B16..8:  9.1%  2.7%  0.4%  direct: 3.3%  skip:82.2%  L0:37.2% L1:46.3% BI:16.5%
[libx264 @ 0x86ac51880] 8x8 transform intra:35.3% inter:33.9%
[libx264 @ 0x86ac51880] coded y,uvDC,uvAC intra: 35.0% 35.9% 16.0% inter: 4.2% 5.8% 0.4%
[libx264 @ 0x86ac51880] i16 v,h,dc,p: 72% 15%  7%  6%
[libx264 @ 0x86ac51880] i8 v,h,dc,ddl,ddr,vr,hd,vl,hu: 34% 18% 20%  2%  6%  6%  5%  5%  4%
[libx264 @ 0x86ac51880] i4 v,h,dc,ddl,ddr,vr,hd,vl,hu: 28% 18% 16%  3% 10%  7%  7%  6%  6%
[libx264 @ 0x86ac51880] i8c dc,h,v,p: 63% 12% 20%  5%
[libx264 @ 0x86ac51880] Weighted P-Frames: Y:1.4% UV:0.9%
[libx264 @ 0x86ac51880] kb/s:2792.61
[aac @ 0x86ac51f80] Qavg: 11636.675

[2026-06-21T08:45:53.471Z] /complete merge OK in 2.5s; final=/Users/edrlu/Documents/Cerebra/regen/job_1782030583020_o0j6x3/final.mp4
